<svg viewBox="0 0 100 200" xmlns="http://www.w3.org/2000/svg">
  <!-- Silueta Lateral Derecha Femenina en Púrpura -->
  <defs>
    <linearGradient id="femaleSideRightGradient" x1="100%" y1="0%" x2="0%" y2="100%">
      <stop offset="0%" style="stop-color:#c084fc;stop-opacity:1" />
      <stop offset="100%" style="stop-color:#a855f7;stop-opacity:1" />
    </linearGradient>
  </defs>
  
  <!-- Cabeza -->
  <circle cx="65" cy="20" r="12" fill="url(#femaleSideRightGradient)" />
  
  <!-- Cuello -->
  <path d="M 65 31 Q 60 32 58 36 Q 60 40 65 40 Q 68 40 70 36 Z" fill="url(#femaleSideRightGradient)" />
  
  <!-- Tronco (vista lateral derecha) -->
  <path d="M 70 40 Q 75 50 75 70 Q 72 85 68 95 L 62 95 Q 58 85 55 70 Q 55 50 60 40 Z" fill="url(#femaleSideRightGradient)" />
  
  <!-- Brazo (vista lateral derecha) -->
  <path d="M 60 45 Q 45 45 35 55 L 38 62 Q 48 55 58 55 Z" fill="url(#femaleSideRightGradient)" />
  
  <!-- Cadera y pelvis (vista lateral derecha) -->
  <path d="M 68 95 Q 70 105 70 120 L 55 120 Q 55 105 60 95 Z" fill="url(#femaleSideRightGradient)" />
  
  <!-- Muslo (vista lateral derecha) -->
  <path d="M 68 120 Q 70 140 72 170 L 60 170 Q 58 140 58 120 Z" fill="url(#femaleSideRightGradient)" />
  
  <!-- Pantorrilla (vista lateral derecha) -->
  <path d="M 68 170 Q 69 185 70 200 L 62 200 Q 60 185 60 170 Z" fill="url(#femaleSideRightGradient)" />
  
  <!-- Mama (vista lateral derecha) -->
  <ellipse cx="65" cy="58" rx="8" ry="10" fill="url(#femaleSideRightGradient)" opacity="0.8" />
</svg>
