<svg viewBox="0 0 100 200" xmlns="http://www.w3.org/2000/svg">
  <!-- Silueta Femenina en Púrpura -->
  <defs>
    <linearGradient id="femaleGradient" x1="0%" y1="0%" x2="100%" y2="100%">
      <stop offset="0%" style="stop-color:#c084fc;stop-opacity:1" />
      <stop offset="100%" style="stop-color:#a855f7;stop-opacity:1" />
    </linearGradient>
  </defs>
  
  <!-- Cabeza -->
  <circle cx="50" cy="20" r="12" fill="url(#femaleGradient)" />
  
  <!-- Cuello -->
  <rect x="47" y="31" width="6" height="8" fill="url(#femaleGradient)" />
  
  <!-- Hombros y brazos -->
  <path d="M 47 39 Q 30 40 25 55 L 20 95 Q 18 100 20 105 L 28 102 Q 30 75 40 50 L 47 48 Z" fill="url(#femaleGradient)" />
  <path d="M 53 39 Q 70 40 75 55 L 80 95 Q 82 100 80 105 L 72 102 Q 70 75 60 50 L 53 48 Z" fill="url(#femaleGradient)" />
  
  <!-- Pecho -->
  <path d="M 42 48 Q 38 55 38 70 Q 40 80 42 88 L 50 90 L 58 88 Q 60 80 62 70 Q 62 55 58 48 Z" fill="url(#femaleGradient)" />
  
  <!-- Cintura -->
  <path d="M 42 88 Q 40 95 40 105 L 60 105 Q 60 95 58 88 Z" fill="url(#femaleGradient)" />
  
  <!-- Abdomen y cadera -->
  <path d="M 40 105 Q 35 115 33 130 L 67 130 Q 65 115 60 105 Z" fill="url(#femaleGradient)" />
  
  <!-- Pelvis -->
  <ellipse cx="50" cy="138" rx="18" ry="12" fill="url(#femaleGradient)" />
  
  <!-- Muslo izquierdo -->
  <path d="M 37 150 Q 33 165 30 190 L 40 190 Q 42 165 45 150 Z" fill="url(#femaleGradient)" />
  
  <!-- Muslo derecho -->
  <path d="M 63 150 Q 67 165 70 190 L 60 190 Q 58 165 55 150 Z" fill="url(#femaleGradient)" />
</svg>
