<svg viewBox="0 0 100 200" xmlns="http://www.w3.org/2000/svg">
  <!-- Silueta Posterior Femenina en Púrpura -->
  <defs>
    <linearGradient id="femaleBackGradient" x1="0%" y1="0%" x2="100%" y2="100%">
      <stop offset="0%" style="stop-color:#c084fc;stop-opacity:1" />
      <stop offset="100%" style="stop-color:#a855f7;stop-opacity:1" />
    </linearGradient>
  </defs>
  
  <!-- Cabeza -->
  <circle cx="50" cy="20" r="12" fill="url(#femaleBackGradient)" />
  
  <!-- Cuello -->
  <rect x="47" y="31" width="6" height="8" fill="url(#femaleBackGradient)" />
  
  <!-- Espalda superior y brazos -->
  <path d="M 47 39 Q 30 40 25 55 L 22 98 Q 20 103 22 108 L 30 105 Q 32 78 42 50 L 47 48 Z" fill="url(#femaleBackGradient)" />
  <path d="M 53 39 Q 70 40 75 55 L 78 98 Q 80 103 78 108 L 70 105 Q 68 78 58 50 L 53 48 Z" fill="url(#femaleBackGradient)" />
  
  <!-- Espalda media -->
  <path d="M 42 48 Q 40 60 40 80 Q 42 88 45 95 L 50 97 L 55 95 Q 58 88 60 80 Q 60 60 58 48 Z" fill="url(#femaleBackGradient)" />
  
  <!-- Cintura posterior -->
  <path d="M 45 95 Q 43 102 43 112 L 57 112 Q 57 102 55 95 Z" fill="url(#femaleBackGradient)" />
  
  <!-- Glúteos -->
  <path d="M 43 112 Q 40 125 38 138 L 62 138 Q 60 125 57 112 Z" fill="url(#femaleBackGradient)" />
  
  <!-- Pelvis posterior -->
  <ellipse cx="50" cy="145" rx="17" ry="11" fill="url(#femaleBackGradient)" />
  
  <!-- Muslo izquierdo posterior -->
  <path d="M 38 157 Q 35 172 33 197 L 42 197 Q 44 172 48 157 Z" fill="url(#femaleBackGradient)" />
  
  <!-- Muslo derecho posterior -->
  <path d="M 62 157 Q 65 172 67 197 L 58 197 Q 56 172 52 157 Z" fill="url(#femaleBackGradient)" />
  
  <!-- Pantorrillas -->
  <path d="M 40 197 Q 38 205 35 220 L 42 220 Z" fill="url(#femaleBackGradient)" />
  <path d="M 60 197 Q 62 205 65 220 L 58 220 Z" fill="url(#femaleBackGradient)" />
</svg>
